<svg xmlns="http://www.w3.org/2000/svg" viewBox="0 0 32 32" width="32" height="32">
  <defs>
    <linearGradient id="grad1" x1="0%" y1="0%" x2="100%" y2="100%">
      <stop offset="0%" style="stop-color:#3B82F6;stop-opacity:1" />
      <stop offset="100%" style="stop-color:#10B981;stop-opacity:1" />
    </linearGradient>
  </defs>
  
  <!-- Background circle -->
  <circle cx="16" cy="16" r="15" fill="url(#grad1)" stroke="#1F2937" stroke-width="1"/>
  
  <!-- Stethoscope -->
  <path d="M8 12 Q8 8 12 8 Q16 8 20 8 Q24 8 24 12 L24 16 Q24 20 20 20 Q16 20 12 20 Q8 20 8 16 Z" fill="none" stroke="white" stroke-width="2"/>
  <circle cx="12" cy="16" r="2" fill="white"/>
  <circle cx="20" cy="16" r="2" fill="white"/>
  
  <!-- Brain/AI symbol -->
  <path d="M16 6 Q18 8 20 6 Q22 8 20 10 Q18 12 16 10 Q14 8 16 6" fill="white"/>
  <path d="M16 10 Q18 12 20 10 Q22 12 20 14 Q18 16 16 14 Q14 12 16 10" fill="white"/>
  <path d="M16 14 Q18 16 20 14 Q22 16 20 18 Q18 20 16 18 Q14 16 16 14" fill="white"/>
  
  <!-- Medical cross -->
  <rect x="14" y="22" width="4" height="6" fill="white"/>
  <rect x="12" y="24" width="8" height="2" fill="white"/>
</svg>
